<svg xmlns="http://www.w3.org/2000/svg" width="64" height="64" viewBox="0 0 64 64" id="codepen"><path d="M59.1 23l-28-18.7c-0.7-0.4-1.5-0.4-2.2 0l-28 18.7c-0.6 0.4-0.9 1-0.9 1.7v18.7c0 0.7 0.3 1.3 0.9 1.7l28 18.7c0.3 0.2 0.7 0.3 1.1 0.3s0.8-0.1 1.1-0.3l28-18.7c0.6-0.4 0.9-1 0.9-1.7v-18.7c0-0.7-0.3-1.3-0.9-1.7zM30 40.9l-10.4-6.9 10.4-6.9 10.4 6.9-10.4 6.9zM32 23.6v-13.9l22.4 14.9-10.4 6.9-12-8zM28 23.6l-12 8-10.4-6.9 22.4-14.9v13.9zM12.4 34l-8.4 5.6v-11.2l8.4 5.6zM16 36.4l12 8v13.9l-22.4-14.9 10.4-6.9zM32 44.4l12-8 10.4 6.9-22.4 14.9v-13.9zM47.6 34l8.4-5.6v11.2l-8.4-5.6z" /></svg>