<?xml version="1.0" encoding="utf-8"?>
<!-- Generated by IcoMoon.io -->
<!DOCTYPE svg PUBLIC "-//W3C//DTD SVG 1.1//EN" "http://www.w3.org/Graphics/SVG/1.1/DTD/svg11.dtd">
<svg version="1.1" xmlns="http://www.w3.org/2000/svg" xmlns:xlink="http://www.w3.org/1999/xlink" width="53" height="64" viewBox="0 0 53 64">
<path fill="rgb(0, 153, 255)" d="M34.761 0h-8.042v31.652h-0.004v21.079c0 2.545-0.864 3.635-2.726 3.635-1.864 0-2.727-1.090-2.727-3.635v-21.079h-7.905v21.079c0 2.545-0.863 3.635-2.726 3.635-1.864 0-2.725-1.090-2.725-3.635v-4.766h-7.906v6.084c0 5.452 3.363 9.951 10.359 9.951 2.68 0 5.453-0.911 6.951-3.091 1.5 2.179 4.27 3.091 6.95 3.091 6.997 0 10.36-4.498 10.36-9.951v-22.249h0.004v-24.168c5.318 0 9.767 2.543 9.767 8.633 0 0 0 26.108 0 32.198 0 4.269-3.406 7.904-7.859 7.904v7.633c9.088-0.001 15.947-6.453 15.947-15.629v-32.199c0-8.903-6.27-16.173-17.718-16.173z"></path>
<path fill="rgb(88, 89, 91)" d="M7.905 44.41v-12.757l0.363-15.75c0-4.33 2.077-6.908 5.083-7.85v20.041h7.91v-28.093h-6.54c-8.542 0-14.721 7.177-14.721 15.902v28.508h7.905z"></path>
</svg>
