<svg xmlns="http://www.w3.org/2000/svg" width="64" height="64" viewBox="0 0 64 64" id="twitter"><path d="M64 12.2c-2.4 1-4.9 1.8-7.5 2.1 2.7-1.6 4.8-4.2 5.8-7.3-2.5 1.5-5.3 2.6-8.3 3.2-2.4-2.6-5.8-4.1-9.6-4.1-7.3 0-13.1 5.9-13.1 13.1 0 1 0.1 2 0.3 3-10.9-0.5-20.6-5.8-27.1-13.7-1.1 1.9-1.8 4.2-1.8 6.6 0 4.6 2.3 8.6 5.8 10.9-2.2-0.1-4.2-0.7-5.9-1.6 0 0.1 0 0.1 0 0.2 0 6.4 4.5 11.7 10.5 12.9-1.1 0.3-2.3 0.5-3.5 0.5-0.8 0-1.7-0.1-2.5-0.2 1.7 5.2 6.5 9 12.3 9.1-4.5 3.5-10.2 5.6-16.3 5.6-1.1 0-2.1-0.1-3.1-0.2 5.8 3.7 12.7 5.9 20.1 5.9 24.2 0 37.4-20 37.4-37.4 0-0.6 0-1.1 0-1.7 2.6-1.9 4.8-4.2 6.6-6.8z"/></svg>